<svg width="75" height="99" viewBox="0 0 75 99" fill="none" xmlns="http://www.w3.org/2000/svg">
<path d="M62.25 6.1875C63.891 6.1875 65.4648 6.8394 66.6252 7.99978C67.7856 9.16016 68.4375 10.734 68.4375 12.375V86.625C68.4375 88.266 67.7856 89.8398 66.6252 91.0002C65.4648 92.1606 63.891 92.8125 62.25 92.8125H12.75C11.109 92.8125 9.53516 92.1606 8.37478 91.0002C7.2144 89.8398 6.5625 88.266 6.5625 86.625V12.375C6.5625 10.734 7.2144 9.16016 8.37478 7.99978C9.53516 6.8394 11.109 6.1875 12.75 6.1875H62.25ZM12.75 0C9.46795 0 6.32032 1.30379 3.99955 3.62455C1.67879 5.94532 0.375 9.09295 0.375 12.375V86.625C0.375 89.9071 1.67879 93.0547 3.99955 95.3754C6.32032 97.6962 9.46795 99 12.75 99H62.25C65.5321 99 68.6797 97.6962 71.0004 95.3754C73.3212 93.0547 74.625 89.9071 74.625 86.625V12.375C74.625 9.09295 73.3212 5.94532 71.0004 3.62455C68.6797 1.30379 65.5321 0 62.25 0L12.75 0Z" fill="white"/>
<path d="M12.75 15.4688C12.75 14.6482 13.0759 13.8613 13.6561 13.2811C14.2363 12.7009 15.0232 12.375 15.8438 12.375H59.1562C59.9768 12.375 60.7637 12.7009 61.3439 13.2811C61.9241 13.8613 62.25 14.6482 62.25 15.4688V27.8438C62.25 28.6643 61.9241 29.4512 61.3439 30.0314C60.7637 30.6116 59.9768 30.9375 59.1562 30.9375H15.8438C15.0232 30.9375 14.2363 30.6116 13.6561 30.0314C13.0759 29.4512 12.75 28.6643 12.75 27.8438V15.4688ZM12.75 40.2188C12.75 39.3982 13.0759 38.6113 13.6561 38.0311C14.2363 37.4509 15.0232 37.125 15.8438 37.125H22.0312C22.8518 37.125 23.6387 37.4509 24.2189 38.0311C24.7991 38.6113 25.125 39.3982 25.125 40.2188V46.4062C25.125 47.2268 24.7991 48.0137 24.2189 48.5939C23.6387 49.1741 22.8518 49.5 22.0312 49.5H15.8438C15.0232 49.5 14.2363 49.1741 13.6561 48.5939C13.0759 48.0137 12.75 47.2268 12.75 46.4062V40.2188ZM12.75 58.7812C12.75 57.9607 13.0759 57.1738 13.6561 56.5936C14.2363 56.0134 15.0232 55.6875 15.8438 55.6875H22.0312C22.8518 55.6875 23.6387 56.0134 24.2189 56.5936C24.7991 57.1738 25.125 57.9607 25.125 58.7812V64.9688C25.125 65.7893 24.7991 66.5762 24.2189 67.1564C23.6387 67.7366 22.8518 68.0625 22.0312 68.0625H15.8438C15.0232 68.0625 14.2363 67.7366 13.6561 67.1564C13.0759 66.5762 12.75 65.7893 12.75 64.9688V58.7812ZM12.75 77.3438C12.75 76.5232 13.0759 75.7363 13.6561 75.1561C14.2363 74.5759 15.0232 74.25 15.8438 74.25H22.0312C22.8518 74.25 23.6387 74.5759 24.2189 75.1561C24.7991 75.7363 25.125 76.5232 25.125 77.3438V83.5312C25.125 84.3518 24.7991 85.1387 24.2189 85.7189C23.6387 86.2991 22.8518 86.625 22.0312 86.625H15.8438C15.0232 86.625 14.2363 86.2991 13.6561 85.7189C13.0759 85.1387 12.75 84.3518 12.75 83.5312V77.3438ZM31.3125 40.2188C31.3125 39.3982 31.6384 38.6113 32.2186 38.0311C32.7988 37.4509 33.5857 37.125 34.4062 37.125H40.5938C41.4143 37.125 42.2012 37.4509 42.7814 38.0311C43.3616 38.6113 43.6875 39.3982 43.6875 40.2188V46.4062C43.6875 47.2268 43.3616 48.0137 42.7814 48.5939C42.2012 49.1741 41.4143 49.5 40.5938 49.5H34.4062C33.5857 49.5 32.7988 49.1741 32.2186 48.5939C31.6384 48.0137 31.3125 47.2268 31.3125 46.4062V40.2188ZM31.3125 58.7812C31.3125 57.9607 31.6384 57.1738 32.2186 56.5936C32.7988 56.0134 33.5857 55.6875 34.4062 55.6875H40.5938C41.4143 55.6875 42.2012 56.0134 42.7814 56.5936C43.3616 57.1738 43.6875 57.9607 43.6875 58.7812V64.9688C43.6875 65.7893 43.3616 66.5762 42.7814 67.1564C42.2012 67.7366 41.4143 68.0625 40.5938 68.0625H34.4062C33.5857 68.0625 32.7988 67.7366 32.2186 67.1564C31.6384 66.5762 31.3125 65.7893 31.3125 64.9688V58.7812ZM31.3125 77.3438C31.3125 76.5232 31.6384 75.7363 32.2186 75.1561C32.7988 74.5759 33.5857 74.25 34.4062 74.25H40.5938C41.4143 74.25 42.2012 74.5759 42.7814 75.1561C43.3616 75.7363 43.6875 76.5232 43.6875 77.3438V83.5312C43.6875 84.3518 43.3616 85.1387 42.7814 85.7189C42.2012 86.2991 41.4143 86.625 40.5938 86.625H34.4062C33.5857 86.625 32.7988 86.2991 32.2186 85.7189C31.6384 85.1387 31.3125 84.3518 31.3125 83.5312V77.3438ZM49.875 40.2188C49.875 39.3982 50.2009 38.6113 50.7811 38.0311C51.3613 37.4509 52.1482 37.125 52.9688 37.125H59.1562C59.9768 37.125 60.7637 37.4509 61.3439 38.0311C61.9241 38.6113 62.25 39.3982 62.25 40.2188V46.4062C62.25 47.2268 61.9241 48.0137 61.3439 48.5939C60.7637 49.1741 59.9768 49.5 59.1562 49.5H52.9688C52.1482 49.5 51.3613 49.1741 50.7811 48.5939C50.2009 48.0137 49.875 47.2268 49.875 46.4062V40.2188ZM49.875 58.7812C49.875 57.9607 50.2009 57.1738 50.7811 56.5936C51.3613 56.0134 52.1482 55.6875 52.9688 55.6875H59.1562C59.9768 55.6875 60.7637 56.0134 61.3439 56.5936C61.9241 57.1738 62.25 57.9607 62.25 58.7812V83.5312C62.25 84.3518 61.9241 85.1387 61.3439 85.7189C60.7637 86.2991 59.9768 86.625 59.1562 86.625H52.9688C52.1482 86.625 51.3613 86.2991 50.7811 85.7189C50.2009 85.1387 49.875 84.3518 49.875 83.5312V58.7812Z" fill="white"/>
</svg>
