<svg width="99" height="99" viewBox="0 0 99 99" fill="none" xmlns="http://www.w3.org/2000/svg">
<path d="M68.0625 40.2188C68.0625 39.3982 68.3884 38.6113 68.9686 38.0311C69.5488 37.4509 70.3357 37.125 71.1562 37.125H77.3438C78.1643 37.125 78.9512 37.4509 79.5314 38.0311C80.1116 38.6113 80.4375 39.3982 80.4375 40.2188V46.4062C80.4375 47.2268 80.1116 48.0137 79.5314 48.5939C78.9512 49.1741 78.1643 49.5 77.3438 49.5H71.1562C70.3357 49.5 69.5488 49.1741 68.9686 48.5939C68.3884 48.0137 68.0625 47.2268 68.0625 46.4062V40.2188ZM49.5 40.2188C49.5 39.3982 49.8259 38.6113 50.4061 38.0311C50.9863 37.4509 51.7732 37.125 52.5938 37.125H58.7812C59.6018 37.125 60.3887 37.4509 60.9689 38.0311C61.5491 38.6113 61.875 39.3982 61.875 40.2188V46.4062C61.875 47.2268 61.5491 48.0137 60.9689 48.5939C60.3887 49.1741 59.6018 49.5 58.7812 49.5H52.5938C51.7732 49.5 50.9863 49.1741 50.4061 48.5939C49.8259 48.0137 49.5 47.2268 49.5 46.4062V40.2188ZM18.5625 58.7812C18.5625 57.9607 18.8884 57.1738 19.4686 56.5936C20.0488 56.0134 20.8357 55.6875 21.6562 55.6875H27.8438C28.6643 55.6875 29.4512 56.0134 30.0314 56.5936C30.6116 57.1738 30.9375 57.9607 30.9375 58.7812V64.9688C30.9375 65.7893 30.6116 66.5762 30.0314 67.1564C29.4512 67.7366 28.6643 68.0625 27.8438 68.0625H21.6562C20.8357 68.0625 20.0488 67.7366 19.4686 67.1564C18.8884 66.5762 18.5625 65.7893 18.5625 64.9688V58.7812ZM37.125 58.7812C37.125 57.9607 37.4509 57.1738 38.0311 56.5936C38.6113 56.0134 39.3982 55.6875 40.2188 55.6875H46.4062C47.2268 55.6875 48.0137 56.0134 48.5939 56.5936C49.1741 57.1738 49.5 57.9607 49.5 58.7812V64.9688C49.5 65.7893 49.1741 66.5762 48.5939 67.1564C48.0137 67.7366 47.2268 68.0625 46.4062 68.0625H40.2188C39.3982 68.0625 38.6113 67.7366 38.0311 67.1564C37.4509 66.5762 37.125 65.7893 37.125 64.9688V58.7812Z" fill="white"/>
<path d="M21.6562 0C22.4768 0 23.2637 0.325948 23.8439 0.906138C24.4241 1.48633 24.75 2.27324 24.75 3.09375V6.1875H74.25V3.09375C74.25 2.27324 74.5759 1.48633 75.1561 0.906138C75.7363 0.325948 76.5232 0 77.3438 0C78.1643 0 78.9512 0.325948 79.5314 0.906138C80.1116 1.48633 80.4375 2.27324 80.4375 3.09375V6.1875H86.625C89.9071 6.1875 93.0547 7.49129 95.3754 9.81205C97.6962 12.1328 99 15.2804 99 18.5625V86.625C99 89.9071 97.6962 93.0547 95.3754 95.3754C93.0547 97.6962 89.9071 99 86.625 99H12.375C9.09295 99 5.94532 97.6962 3.62455 95.3754C1.30379 93.0547 0 89.9071 0 86.625V18.5625C0 15.2804 1.30379 12.1328 3.62455 9.81205C5.94532 7.49129 9.09295 6.1875 12.375 6.1875H18.5625V3.09375C18.5625 2.27324 18.8884 1.48633 19.4686 0.906138C20.0488 0.325948 20.8357 0 21.6562 0V0ZM6.1875 24.75V86.625C6.1875 88.266 6.8394 89.8398 7.99978 91.0002C9.16016 92.1606 10.734 92.8125 12.375 92.8125H86.625C88.266 92.8125 89.8398 92.1606 91.0002 91.0002C92.1606 89.8398 92.8125 88.266 92.8125 86.625V24.75H6.1875Z" fill="white"/>
</svg>
