<svg width="81" height="83" viewBox="0 0 81 83" fill="none" xmlns="http://www.w3.org/2000/svg">
<path d="M53.6175 30.1397L35.8594 47.9473L27.2216 39.3096L26.7885 38.9569C26.1533 38.5157 25.3758 38.3284 24.6094 38.4319C23.8429 38.5355 23.143 38.9224 22.6477 39.5163C22.1523 40.1103 21.8974 40.8683 21.9332 41.6409C21.9689 42.4135 22.2928 43.1447 22.8409 43.6903L33.669 54.5185L34.1021 54.8773C34.6987 55.2883 35.4207 55.4769 36.1421 55.4102C36.8635 55.3435 37.5386 55.0257 38.0498 54.5123L57.9983 34.5081L58.3571 34.075C58.7917 33.4388 58.9732 32.6634 58.8663 31.9004C58.7593 31.1375 58.3715 30.4419 57.7788 29.9497C57.186 29.4576 56.431 29.2043 55.6614 29.2394C54.8917 29.2746 54.1629 29.5956 53.6175 30.1397ZM45.3139 2.31452C44.7339 1.5963 44.0005 1.01696 43.1676 0.618968C42.3346 0.220972 41.4232 0.0144043 40.5 0.0144043C39.5768 0.0144043 38.6654 0.220972 37.8324 0.618968C36.9995 1.01696 36.2661 1.5963 35.6861 2.31452L30.0369 9.30639L21.3621 6.96752C20.4709 6.72724 19.5373 6.68938 18.6296 6.8567C17.7219 7.02402 16.8631 7.39229 16.1162 7.93453C15.3693 8.47676 14.7532 9.17923 14.3129 9.99046C13.8727 10.8017 13.6196 11.7011 13.572 12.6229L13.1079 21.5948L4.71769 24.8123C3.85568 25.1424 3.07848 25.6613 2.44301 26.3308C1.80755 27.0003 1.32993 27.8035 1.04516 28.6816C0.760386 29.5596 0.675677 30.4902 0.797237 31.4053C0.918796 32.3203 1.24355 33.1965 1.74769 33.9698L6.642 41.5L1.73531 49.0301C1.23131 49.8038 0.906846 50.6804 0.7857 51.5958C0.664553 52.5111 0.749798 53.442 1.03519 54.3201C1.32057 55.1982 1.79887 56.0013 2.435 56.6705C3.07113 57.3397 3.84898 57.8581 4.7115 58.1876L13.1079 61.4051L13.5658 70.377C13.6134 71.2988 13.8665 72.1982 14.3068 73.0095C14.747 73.8207 15.3631 74.5231 16.11 75.0654C16.857 75.6076 17.7157 75.9759 18.6234 76.1432C19.5311 76.3105 20.4647 76.2727 21.3559 76.0324L30.0308 73.6997L35.6799 80.6916C36.2599 81.4098 36.9933 81.9891 37.8262 82.3871C38.6592 82.7851 39.5707 82.9917 40.4938 82.9917C41.417 82.9917 42.3284 82.7851 43.1614 82.3871C43.9944 81.9891 44.7277 81.4098 45.3077 80.6916L50.9569 73.6997L59.6318 76.0324C60.5229 76.2727 61.4565 76.3105 62.3642 76.1432C63.2719 75.9759 64.1307 75.6076 64.8776 75.0654C65.6245 74.5231 66.2406 73.8207 66.6809 73.0095C67.1211 72.1982 67.3743 71.2988 67.4218 70.377L67.8859 61.4051L76.2761 58.1876C77.1381 57.8575 77.9153 57.3386 78.5508 56.6691C79.1863 55.9996 79.6639 55.1964 79.9487 54.3184C80.2334 53.4403 80.3181 52.5097 80.1966 51.5947C80.075 50.6796 79.7503 49.8034 79.2461 49.0301L74.3642 41.5L79.2647 33.9698C79.7688 33.1965 80.0936 32.3203 80.2151 31.4053C80.3367 30.4902 80.252 29.5596 79.9672 28.6816C79.6824 27.8035 79.2048 27.0003 78.5694 26.3308C77.9339 25.6613 77.1567 25.1424 76.2947 24.8123L67.8983 21.5948L67.4342 12.6229C67.3864 11.7018 67.1334 10.8031 66.6935 9.99241C66.2536 9.18174 65.6381 8.47967 64.8919 7.93754C64.1458 7.39542 63.2879 7.02696 62.3809 6.85913C61.474 6.69129 60.5411 6.72832 59.6503 6.96752L50.9693 9.30021L45.3201 2.30833L45.3139 2.31452ZM15.3169 27.3739C16.4352 26.9456 17.4052 26.202 18.1092 25.2333C18.8132 24.2646 19.221 23.1124 19.2831 21.9165L19.7471 12.9446L28.4282 15.2773C29.5848 15.588 30.8067 15.5563 31.9456 15.1862C33.0846 14.8161 34.0916 14.1234 34.8446 13.1921L40.5 6.20027L46.1492 13.1921C46.9022 14.1234 47.9093 14.8161 49.0482 15.1862C50.1872 15.5563 51.409 15.588 52.5656 15.2773L61.2467 12.9446L61.7108 21.9165C61.7717 23.1135 62.1789 24.267 62.883 25.2369C63.5871 26.2068 64.5577 26.9514 65.6769 27.3801L74.0672 30.5976L69.1667 38.1278C68.5143 39.1315 68.167 40.3029 68.167 41.5C68.167 42.6971 68.5143 43.8685 69.1667 44.8721L74.0734 52.4085L65.6769 55.626C64.5586 56.0543 63.5887 56.7979 62.8846 57.7666C62.1806 58.7353 61.7729 59.8875 61.7108 61.0834L61.2467 70.0553L52.5656 67.7226C51.409 67.4119 50.1872 67.4436 49.0482 67.8137C47.9093 68.1838 46.9022 68.8765 46.1492 69.8078L40.5 76.7996L34.8508 69.8078C34.0978 68.8765 33.0908 68.1838 31.9518 67.8137C30.8129 67.4436 29.591 67.4119 28.4344 67.7226L19.7533 70.0553L19.2892 61.0834C19.2288 59.8871 18.8225 58.7341 18.1196 57.7643C17.4166 56.7945 16.4473 56.0495 15.3292 55.6198L6.93281 52.4023L11.8333 44.8721C12.4857 43.8685 12.833 42.6971 12.833 41.5C12.833 40.3029 12.4857 39.1315 11.8333 38.1278L6.93281 30.5914L15.3231 27.3739H15.3169ZM50.9569 9.30639L48.5499 11.2493L50.9569 9.30021V9.30639Z" fill="white"/>
</svg>
