<svg width="91" height="91" viewBox="0 0 91 91" fill="none" xmlns="http://www.w3.org/2000/svg">
<path fill-rule="evenodd" clip-rule="evenodd" d="M26.6681 0.27225C31.5068 0.0494999 33.0495 0 45.375 0C57.7005 0 59.2433 0.0536249 64.0778 0.27225C68.9123 0.490875 72.2122 1.26225 75.0997 2.38013C78.1234 3.52275 80.8665 5.30887 83.1352 7.61887C85.4452 9.8835 87.2273 12.6225 88.3658 15.6503C89.4878 18.5378 90.255 21.8378 90.4778 26.664C90.7005 31.5109 90.75 33.0536 90.75 45.375C90.75 57.7005 90.6964 59.2432 90.4778 64.0819C90.2591 68.9081 89.4878 72.2081 88.3658 75.0956C87.2272 78.1238 85.4423 80.8673 83.1352 83.1352C80.8665 85.4452 78.1234 87.2273 75.0997 88.3658C72.2122 89.4878 68.9122 90.255 64.086 90.4778C59.2432 90.7005 57.7005 90.75 45.375 90.75C33.0495 90.75 31.5068 90.6964 26.6681 90.4778C21.8419 90.2591 18.5419 89.4878 15.6544 88.3658C12.6263 87.2271 9.88276 85.4422 7.61475 83.1352C5.30632 80.8693 3.51992 78.127 2.38013 75.0997C1.26225 72.2122 0.495 68.9122 0.27225 64.086C0.0494999 59.2391 0 57.6964 0 45.375C0 33.0495 0.0536249 31.5068 0.27225 26.6723C0.490875 21.8378 1.26225 18.5378 2.38013 15.6503C3.52161 12.6228 5.30936 9.88067 7.61887 7.61475C9.88367 5.30682 12.6244 3.52045 15.6503 2.38013C18.5378 1.26225 21.8378 0.495 26.664 0.27225H26.6681ZM63.7106 8.43975C58.9256 8.22113 57.4901 8.17575 45.375 8.17575C33.2599 8.17575 31.8244 8.22113 27.0394 8.43975C22.6132 8.64188 20.2125 9.38025 18.612 10.0031C16.4959 10.8281 14.982 11.8058 13.3939 13.3939C11.8884 14.8585 10.7299 16.6414 10.0031 18.612C9.38025 20.2125 8.64188 22.6132 8.43975 27.0394C8.22113 31.8244 8.17575 33.2599 8.17575 45.375C8.17575 57.4901 8.22113 58.9256 8.43975 63.7106C8.64188 68.1367 9.38025 70.5375 10.0031 72.138C10.7291 74.1056 11.8883 75.8918 13.3939 77.3561C14.8583 78.8618 16.6444 80.0209 18.612 80.7469C20.2125 81.3698 22.6132 82.1081 27.0394 82.3103C31.8244 82.5289 33.2558 82.5742 45.375 82.5742C57.4942 82.5742 58.9256 82.5289 63.7106 82.3103C68.1367 82.1081 70.5375 81.3698 72.138 80.7469C74.2541 79.9219 75.768 78.9443 77.3561 77.3561C78.8618 75.8918 80.0209 74.1056 80.7469 72.138C81.3698 70.5375 82.1081 68.1367 82.3103 63.7106C82.5289 58.9256 82.5742 57.4901 82.5742 45.375C82.5742 33.2599 82.5289 31.8244 82.3103 27.0394C82.1081 22.6132 81.3698 20.2125 80.7469 18.612C79.9219 16.4959 78.9443 14.982 77.3561 13.3939C75.8914 11.8885 74.1085 10.73 72.138 10.0031C70.5375 9.38025 68.1367 8.64188 63.7106 8.43975V8.43975ZM39.5794 59.3629C42.8161 60.7102 46.4202 60.8921 49.7761 59.8774C53.132 58.8626 56.0315 56.7143 57.9794 53.7993C59.9273 50.8842 60.8027 47.3833 60.4562 43.8946C60.1097 40.4058 58.5626 37.1455 56.0794 34.6706C54.4964 33.0886 52.5823 31.8772 50.4749 31.1237C48.3675 30.3702 46.1193 30.0934 43.892 30.313C41.6648 30.5327 39.514 31.2435 37.5944 32.3942C35.6749 33.5448 34.0343 35.1068 32.7909 36.9676C31.5474 38.8285 30.732 40.9418 30.4034 43.1556C30.0747 45.3694 30.241 47.6285 30.8902 49.7703C31.5395 51.9121 32.6555 53.8833 34.158 55.542C35.6605 57.2007 37.512 58.5056 39.5794 59.3629ZM28.8832 28.8832C31.049 26.7175 33.6201 24.9996 36.4497 23.8275C39.2794 22.6554 42.3122 22.0521 45.375 22.0521C48.4378 22.0521 51.4706 22.6554 54.3003 23.8275C57.1299 24.9996 59.701 26.7175 61.8668 28.8832C64.0325 31.049 65.7504 33.6201 66.9225 36.4497C68.0946 39.2794 68.6979 42.3122 68.6979 45.375C68.6979 48.4378 68.0946 51.4706 66.9225 54.3003C65.7504 57.1299 64.0325 59.701 61.8668 61.8668C57.4929 66.2406 51.5606 68.6979 45.375 68.6979C39.1894 68.6979 33.2571 66.2406 28.8832 61.8668C24.5094 57.4929 22.0521 51.5606 22.0521 45.375C22.0521 39.1894 24.5094 33.2571 28.8832 28.8832V28.8832ZM73.8705 25.5255C74.4072 25.0192 74.8368 24.4104 75.134 23.7351C75.4312 23.0599 75.5898 22.3318 75.6006 21.5941C75.6114 20.8564 75.474 20.124 75.1966 19.4403C74.9193 18.7567 74.5075 18.1356 73.9858 17.6139C73.4641 17.0922 72.8431 16.6805 72.1594 16.4031C71.4757 16.1258 70.7434 15.9884 70.0057 15.9992C69.268 16.0099 68.5399 16.1686 67.8646 16.4657C67.1893 16.7629 66.5805 17.1926 66.0742 17.7292C65.0897 18.773 64.5506 20.1594 64.5715 21.5941C64.5924 23.0288 65.1717 24.3989 66.1863 25.4135C67.2009 26.4281 68.571 27.0073 70.0057 27.0282C71.4404 27.0491 72.8268 26.5101 73.8705 25.5255V25.5255Z" fill="#405DE6"/>
</svg>
