<svg width="332" height="33" viewBox="0 0 332 33" fill="none" xmlns="http://www.w3.org/2000/svg">
<path d="M12.6406 22.3828L6.01367 19.1484C4.32617 21.457 3.38281 22.9805 3.18359 23.7188C3.04297 24.2461 2.72656 24.6855 2.23438 25.0371C1.75391 25.4004 1.4082 25.582 1.19727 25.582C0.599609 25.582 0.300781 25.3535 0.300781 24.8965C0.300781 24.6387 0.652344 23.9004 1.35547 22.6816C2.07031 21.4512 3.04883 20.0039 4.29102 18.3398C3.59961 18.0586 3.17188 17.8711 3.00781 17.7773C2.84375 17.6836 2.7793 17.5078 2.81445 17.25C2.84961 16.9805 3.05469 16.5645 3.42969 16.002C3.75781 15.5098 4.00391 15.1816 4.16797 15.0176C4.33203 14.8418 4.52539 14.707 4.74805 14.6133C4.9707 14.5078 5.20508 14.4375 5.45117 14.4023C5.69727 14.3672 6.38867 14.2793 7.52539 14.1387C8.45117 12.8848 9.45312 11.5312 10.5312 10.0781C11.6211 8.625 12.4707 7.49414 13.0801 6.68555C11.2402 6.93164 9.95703 7.13672 9.23047 7.30078C8.45703 7.45312 7.80664 7.58203 7.2793 7.6875C6.76367 7.78125 6.40039 7.86914 6.18945 7.95117C5.97852 8.02148 5.87305 8.12695 5.87305 8.26758C5.87305 8.39648 6.00195 8.48438 6.25977 8.53125C6.51758 8.57812 6.83984 8.60156 7.22656 8.60156C7.625 8.60156 7.92969 8.61914 8.14062 8.6543C8.36328 8.67773 8.47461 8.74219 8.47461 8.84766C8.47461 8.96484 8.32812 9.03516 8.03516 9.05859C7.75391 9.07031 6.95117 9.10547 5.62695 9.16406C4.87695 9.1875 4.24414 9.21094 3.72852 9.23438C3.22461 9.25781 2.87305 9.26953 2.67383 9.26953C2.4043 9.26953 2.19336 9.1875 2.04102 9.02344C1.88867 8.85938 1.8125 8.64258 1.8125 8.37305C1.8125 8.17383 1.92383 7.80469 2.14648 7.26562C2.36914 6.72656 2.68555 6.18164 3.0957 5.63086C3.50586 5.08008 3.97461 4.65234 4.50195 4.34766C5.09961 3.98437 6.02539 3.62109 7.2793 3.25781C8.54492 2.88281 9.94531 2.58398 11.4805 2.36133C13.0273 2.12695 14.5566 2.00977 16.0684 2.00977C16.9824 2.00977 17.873 2.0625 18.7402 2.16797C19.6191 2.27344 20.4102 2.40234 21.1133 2.55469C21.8281 2.70703 22.3906 2.85937 22.8008 3.01172C23.8672 3.36328 24.6816 3.89648 25.2441 4.61133C25.8184 5.32617 26.1055 6.11133 26.1055 6.9668C26.1055 7.79883 25.959 8.61328 25.666 9.41016C25.3848 10.1953 24.9453 10.9277 24.3477 11.6074C23.7617 12.2754 23.0527 12.8203 22.2207 13.2422C21.541 13.5938 20.5098 13.9512 19.127 14.3145C17.7441 14.6777 16.0742 15 14.1172 15.2812C12.1602 15.5625 9.97461 15.7676 7.56055 15.8965C9.36523 16.5293 11.0469 17.168 12.6055 17.8125C14.1758 18.4453 15.4941 19.0137 16.5605 19.5176C17.6387 20.0098 18.4824 20.4141 19.0918 20.7305C19.9473 21.1758 20.5039 21.498 20.7617 21.6973C21.0195 21.8965 21.1895 22.1543 21.2715 22.4707C21.3535 22.7871 21.3945 23.3086 21.3945 24.0352C21.3945 24.8555 21.3418 25.459 21.2363 25.8457C21.1426 26.2441 20.9316 26.4434 20.6035 26.4434C20.498 26.4434 20.2168 26.3262 19.7598 26.0918C19.3145 25.8691 18.6934 25.5352 17.8965 25.0898C17.0996 24.6562 16.373 24.2695 15.7168 23.9297C15.0723 23.5781 14.0469 23.0625 12.6406 22.3828ZM14.1875 6.50977C14.1992 6.5918 14.2051 6.66797 14.2051 6.73828C14.2168 6.80859 14.2227 6.9082 14.2227 7.03711C14.2227 7.36523 14.1172 7.74609 13.9062 8.17969C13.707 8.60156 13.4434 9.04102 13.1152 9.49805C12.7988 9.94336 12.3184 10.5879 11.6738 11.4316C11.041 12.2637 10.4551 13.0312 9.91602 13.7344C12.377 13.2656 14.4746 12.8145 16.209 12.3809C17.9551 11.9473 19.3906 11.5137 20.5156 11.0801C21.6406 10.6348 22.4844 10.1719 23.0469 9.69141C23.6211 9.19922 23.9082 8.68945 23.9082 8.16211C23.9082 7.57617 23.3105 7.11914 22.1152 6.79102C20.9316 6.45117 19.4785 6.28125 17.7559 6.28125C17.4043 6.28125 17.0293 6.29297 16.6309 6.31641C16.2441 6.32812 15.7754 6.36328 15.2246 6.42188C14.6855 6.46875 14.3398 6.49805 14.1875 6.50977ZM25.7188 19.0957V19.5352C25.7188 20.2266 25.8887 20.7656 26.2285 21.1523C26.5684 21.5391 27.0137 21.7324 27.5645 21.7324C28.1387 21.7324 28.7305 21.5977 29.3398 21.3281C29.9609 21.0586 30.5762 20.7012 31.1855 20.2559C31.7949 19.8105 32.5391 19.2129 33.418 18.4629V19.5352C32.0938 21.1289 30.8516 22.3535 29.6914 23.209C28.5312 24.0527 27.3535 24.4746 26.1582 24.4746C25.1152 24.4746 24.2891 24.0703 23.6797 23.2617C23.0703 22.4531 22.7656 21.3457 22.7656 19.9395C22.7656 18.709 23.0527 17.5957 23.627 16.5996C24.2012 15.5918 25.1387 14.5312 26.4395 13.418C27.3301 12.6562 28.2148 12.082 29.0938 11.6953C29.9727 11.3086 30.7578 11.1152 31.4492 11.1152C32 11.1152 32.4336 11.2441 32.75 11.502C33.0781 11.748 33.2422 12.123 33.2422 12.627C33.2422 13.3652 32.9668 14.1035 32.416 14.8418C31.8652 15.5684 31.0215 16.2949 29.8848 17.0215C28.7598 17.7363 27.3711 18.4277 25.7188 19.0957ZM25.8945 17.9531C26.9492 17.543 27.8516 17.0332 28.6016 16.4238C29.3516 15.8145 29.9023 15.2344 30.2539 14.6836C30.6172 14.1211 30.7988 13.7109 30.7988 13.4531C30.7988 13.1836 30.6758 13.0488 30.4297 13.0488C30.2188 13.0488 29.873 13.1836 29.3926 13.4531C28.9238 13.7227 28.4434 14.0742 27.9512 14.5078C27.4707 14.9414 27.0371 15.4512 26.6504 16.0371C26.2637 16.623 26.0117 17.2617 25.8945 17.9531ZM33.3477 18.9551V18.5332C36.3711 15.3457 38.4512 13.1133 39.5879 11.8359C39.8457 10.3945 40.4668 9.67383 41.4512 9.67383C41.6973 9.67383 41.9609 9.74414 42.2422 9.88477L42.3477 10.2188C42.3008 10.3594 42.2773 10.5586 42.2773 10.8164C42.2773 11.0391 42.3594 11.4551 42.5234 12.0645C42.6992 12.6621 42.834 13.166 42.9277 13.5762C43.0215 13.9863 43.0684 14.4492 43.0684 14.9648C43.0684 15.7383 42.8926 16.4824 42.541 17.1973C42.1895 17.9004 41.6797 18.5801 41.0117 19.2363C40.3438 19.8809 39.4824 20.543 38.4277 21.2227C38.8496 21.293 39.1836 21.3281 39.4297 21.3281C39.9102 21.3281 40.4258 21.2109 40.9766 20.9766C41.5391 20.7305 42.1074 20.4082 42.6816 20.0098C43.2676 19.5996 43.9473 19.0723 44.7207 18.4277V19.6055C43.2207 21.0703 41.8789 22.1836 40.6953 22.9453C39.5117 23.6953 38.4922 24.0703 37.6367 24.0703C36.5352 24.0703 35.5156 23.6016 34.5781 22.6641C34.0273 22.1016 33.6816 21.5625 33.541 21.0469C33.4121 20.5312 33.3477 19.834 33.3477 18.9551ZM39.9043 16.2656L39.5879 13.6992C38.8613 14.5195 37.3086 16.0957 34.9297 18.4277C35.6328 18.5801 36.1133 18.7852 36.3711 19.043C36.6289 19.3008 36.9922 19.7988 37.4609 20.5371C38.2578 20.209 38.8672 19.7637 39.2891 19.2012C39.7227 18.627 39.9395 17.8477 39.9395 16.8633C39.9395 16.7461 39.9336 16.6406 39.9219 16.5469C39.9219 16.4531 39.916 16.3594 39.9043 16.2656ZM51.875 10.6055C51.582 10.6055 51.3008 10.4941 51.0312 10.2715C50.7734 10.0488 50.6445 9.76758 50.6445 9.42773C50.6445 8.91211 50.8906 8.33789 51.3828 7.70508C51.875 7.07227 52.3848 6.75586 52.9121 6.75586C53.2637 6.75586 53.5566 6.86719 53.791 7.08984C54.0254 7.30078 54.1426 7.61133 54.1426 8.02148C54.1426 8.52539 53.9023 9.08203 53.4219 9.69141C52.9414 10.3008 52.4258 10.6055 51.875 10.6055ZM53.0703 18.4629V19.7461C51.9336 21.2109 50.873 22.3184 49.8887 23.0684C48.9043 23.8066 48.0664 24.1758 47.375 24.1758C46.4141 24.1758 45.6992 23.6719 45.2305 22.6641C44.7617 21.6562 44.5273 20.5547 44.5273 19.3594C44.5273 18.9023 44.5742 18.4688 44.668 18.0586C44.7617 17.6367 44.873 17.291 45.002 17.0215C45.1309 16.752 45.3711 16.3301 45.7227 15.7559C47.3867 13.166 48.9102 11.8711 50.293 11.8711C51.0078 11.8711 51.3652 12.1465 51.3652 12.6973C51.3652 13.0723 51.1309 13.6582 50.6621 14.4551C50.2051 15.252 49.7949 15.8203 49.4316 16.1602C48.4121 17.1445 47.7441 17.8301 47.4277 18.2168C47.123 18.6035 46.9707 19.043 46.9707 19.5352C46.9707 19.957 47.1289 20.3086 47.4453 20.5898C47.7617 20.8711 48.1719 21.0117 48.6758 21.0117C49.2266 21.0117 49.8301 20.8125 50.4863 20.4141C51.1543 20.0039 52.0156 19.3535 53.0703 18.4629ZM60.9629 18.498C59.9316 19.6699 59.0059 20.666 58.1855 21.4863C57.377 22.3066 56.7148 22.9219 56.1992 23.332C55.6953 23.7305 55.3496 23.9297 55.1621 23.9297C54.8574 23.9297 54.5117 23.6836 54.125 23.1914C53.75 22.6992 53.4277 22.0723 53.1582 21.3105C52.8887 20.5488 52.7539 19.7754 52.7539 18.9902C52.7539 17.8535 53.3047 16.7109 54.4062 15.5625C55.5078 14.4023 56.7617 13.4414 58.168 12.6797C59.5742 11.918 60.6289 11.5371 61.332 11.5371C61.9062 11.5371 62.4688 11.9004 63.0195 12.627C63.9219 10.7402 64.7773 9.06445 65.5859 7.59961C66.4062 6.13477 67.0918 5.04492 67.6426 4.33008C68.1934 3.61523 68.5859 3.25781 68.8203 3.25781C69.0781 3.25781 69.3125 3.38672 69.5234 3.64453C69.7461 3.89062 69.8574 4.17188 69.8574 4.48828C69.8574 5.09766 69.4121 6.14648 68.5215 7.63477C67.6309 9.11133 66.752 10.5527 65.8848 11.959C65.0176 13.3652 64.2734 14.7539 63.6523 16.125C63.0312 17.4844 62.7207 18.7441 62.7207 19.9043C62.7207 20.959 63.0605 21.4863 63.7402 21.4863C64.1504 21.4863 64.666 21.2578 65.2871 20.8008C65.9082 20.332 66.793 19.5527 67.9414 18.4629V19.7461C65.4102 23.0156 63.459 24.6504 62.0879 24.6504C61.5371 24.6504 61.1387 24.4395 60.8926 24.0176C60.6582 23.5957 60.541 22.9688 60.541 22.1367C60.541 21.0117 60.6816 19.7988 60.9629 18.498ZM62.2637 14.209C61.2207 14.5605 59.9961 15.1289 58.5898 15.9141C57.1836 16.6875 56.334 17.2207 56.041 17.5137C55.7832 17.748 55.5547 18.1875 55.3555 18.832C55.1562 19.4766 55.0566 19.9629 55.0566 20.291C55.0566 20.4902 55.1152 20.6543 55.2324 20.7832C55.3496 20.9121 55.4961 20.9766 55.6719 20.9766C55.8359 20.9766 56.0234 20.9062 56.2344 20.7656C56.4453 20.625 56.7793 20.3496 57.2363 19.9395C57.7051 19.5293 58.0098 19.2656 58.1504 19.1484C58.3496 18.9727 58.7891 18.5977 59.4688 18.0234C60.1602 17.4375 60.6641 16.9805 60.9805 16.6523C61.2969 16.3242 61.5664 15.9609 61.7891 15.5625C62.0117 15.1523 62.1699 14.7012 62.2637 14.209ZM70.7539 19.0957V19.5352C70.7539 20.2266 70.9238 20.7656 71.2637 21.1523C71.6035 21.5391 72.0488 21.7324 72.5996 21.7324C73.1738 21.7324 73.7656 21.5977 74.375 21.3281C74.9961 21.0586 75.6113 20.7012 76.2207 20.2559C76.8301 19.8105 77.5742 19.2129 78.4531 18.4629V19.5352C77.1289 21.1289 75.8867 22.3535 74.7266 23.209C73.5664 24.0527 72.3887 24.4746 71.1934 24.4746C70.1504 24.4746 69.3242 24.0703 68.7148 23.2617C68.1055 22.4531 67.8008 21.3457 67.8008 19.9395C67.8008 18.709 68.0879 17.5957 68.6621 16.5996C69.2363 15.5918 70.1738 14.5312 71.4746 13.418C72.3652 12.6562 73.25 12.082 74.1289 11.6953C75.0078 11.3086 75.793 11.1152 76.4844 11.1152C77.0352 11.1152 77.4688 11.2441 77.7852 11.502C78.1133 11.748 78.2773 12.123 78.2773 12.627C78.2773 13.3652 78.002 14.1035 77.4512 14.8418C76.9004 15.5684 76.0566 16.2949 74.9199 17.0215C73.7949 17.7363 72.4062 18.4277 70.7539 19.0957ZM70.9297 17.9531C71.9844 17.543 72.8867 17.0332 73.6367 16.4238C74.3867 15.8145 74.9375 15.2344 75.2891 14.6836C75.6523 14.1211 75.834 13.7109 75.834 13.4531C75.834 13.1836 75.7109 13.0488 75.4648 13.0488C75.2539 13.0488 74.9082 13.1836 74.4277 13.4531C73.959 13.7227 73.4785 14.0742 72.9863 14.5078C72.5059 14.9414 72.0723 15.4512 71.6855 16.0371C71.2988 16.623 71.0469 17.2617 70.9297 17.9531ZM90.3008 15.2812C88.2383 17.5781 87.207 19.1777 87.207 20.0801C87.207 20.584 87.4121 20.8359 87.8223 20.8359C88.1621 20.8359 88.6016 20.6602 89.1406 20.3086C89.6914 19.9453 90.5469 19.3066 91.707 18.3926V19.6055C90.043 21.2461 88.7656 22.4297 87.875 23.1562C86.9844 23.8828 86.2578 24.2461 85.6953 24.2461C84.7344 24.2461 84.2539 23.6133 84.2539 22.3477C84.2539 21.9727 84.3125 21.6035 84.4297 21.2402C84.5469 20.877 84.7051 20.502 84.9043 20.1152C85.1152 19.7168 85.4316 19.1543 85.8535 18.4277C86.2754 17.6895 86.7617 16.8574 87.3125 15.9316C86.6445 16.2715 85.8066 16.9453 84.7988 17.9531C84.1426 18.5859 83.5859 19.1895 83.1289 19.7637C82.6719 20.3262 82.1797 20.959 81.6523 21.6621C81.1367 22.3535 80.7559 22.8223 80.5098 23.0684C80.2754 23.3027 80.0352 23.4199 79.7891 23.4199C79.4141 23.4199 79.0684 23.0273 78.752 22.2422C78.4355 21.457 78.2773 20.543 78.2773 19.5C78.2773 18.8555 78.3477 18.3516 78.4883 17.9883C78.6406 17.625 78.9336 17.1094 79.3672 16.4414C80.1758 15.1992 80.873 14.291 81.459 13.7168C82.0449 13.1309 82.6074 12.8379 83.1465 12.8379C83.5215 12.8379 83.8203 12.9023 84.043 13.0312C84.2773 13.1602 84.3945 13.3594 84.3945 13.6289C84.3945 13.7461 84.3594 13.8691 84.2891 13.998C84.2188 14.127 84.1367 14.2441 84.043 14.3496C83.9609 14.4551 83.7793 14.6602 83.498 14.9648C81.6465 17.0156 80.7207 18.3457 80.7207 18.9551C80.7207 19.2949 80.832 19.4648 81.0547 19.4648C81.1953 19.4648 81.4648 19.2422 81.8633 18.7969C82.2734 18.3398 82.7949 17.748 83.4277 17.0215C84.0723 16.2832 84.8281 15.5156 85.6953 14.7188C86.5742 13.9219 87.5703 13.1543 88.6836 12.416C89.3047 11.9824 89.8203 11.7656 90.2305 11.7656C90.418 11.7656 90.5996 12.0234 90.7754 12.5391C90.9629 13.0547 91.0566 13.5762 91.0566 14.1035C91.0566 14.3613 90.8047 14.7539 90.3008 15.2812ZM97.7715 9.33984H98.5273C99.1484 8.22656 99.7109 7.44141 100.215 6.98438C100.719 6.51562 101.293 6.28125 101.938 6.28125C102.582 6.28125 102.904 6.42773 102.904 6.7207C102.904 6.86133 102.652 7.24219 102.148 7.86328C101.645 8.48438 101.264 9.00586 101.006 9.42773C101.404 9.47461 101.756 9.51562 102.061 9.55078C102.377 9.58594 102.623 9.61523 102.799 9.63867C102.131 10.8809 101.293 12.1523 100.285 13.4531C99.957 13.4297 99.6816 13.4121 99.459 13.4004C99.2363 13.377 99.0078 13.3594 98.7734 13.3477C98.5508 13.3242 98.2754 13.3008 97.9473 13.2773C97.3145 14.2969 96.7812 15.2109 96.3477 16.0195C95.9258 16.8164 95.5977 17.5488 95.3633 18.2168C95.1406 18.8848 95.0293 19.5176 95.0293 20.1152C95.0293 20.9238 95.3516 21.3281 95.9961 21.3281C96.4414 21.3281 97.0215 21.0938 97.7363 20.625C98.4629 20.1445 99.4297 19.4121 100.637 18.4277V19.6055C97.4727 23.0391 95.1348 24.7559 93.623 24.7559C93.0957 24.7559 92.668 24.5508 92.3398 24.1406C92.0234 23.7305 91.8652 23.2031 91.8652 22.5586C91.8652 22.125 91.9531 21.6094 92.1289 21.0117C92.3164 20.4141 92.6445 19.5117 93.1133 18.3047C92.9492 18.4453 92.791 18.5859 92.6387 18.7266C92.498 18.8555 92.3633 18.9785 92.2344 19.0957C92.1172 19.2012 91.9883 19.3184 91.8477 19.4473C91.707 19.5645 91.5664 19.6875 91.4258 19.8164V18.6035C92.6562 17.5723 94.1445 15.7617 95.8906 13.1719C95.7148 13.1602 95.5508 13.1543 95.3984 13.1543C95.2461 13.1426 95.0645 13.1367 94.8535 13.1367C94.1621 13.1367 93.6465 13.1836 93.3066 13.2773C93.166 13.3125 93.0312 13.3535 92.9023 13.4004C92.7852 13.4355 92.7031 13.4531 92.6562 13.4531C92.6094 13.4531 92.5859 13.418 92.5859 13.3477C92.5859 12.9609 92.8262 12.3809 93.3066 11.6074C93.6934 10.9512 94.0566 10.4648 94.3965 10.1484C94.748 9.83203 95.1699 9.62109 95.6621 9.51562C96.166 9.39844 96.8691 9.33984 97.7715 9.33984ZM107.809 10.6055C107.516 10.6055 107.234 10.4941 106.965 10.2715C106.707 10.0488 106.578 9.76758 106.578 9.42773C106.578 8.91211 106.824 8.33789 107.316 7.70508C107.809 7.07227 108.318 6.75586 108.846 6.75586C109.197 6.75586 109.49 6.86719 109.725 7.08984C109.959 7.30078 110.076 7.61133 110.076 8.02148C110.076 8.52539 109.836 9.08203 109.355 9.69141C108.875 10.3008 108.359 10.6055 107.809 10.6055ZM109.004 18.4629V19.7461C107.867 21.2109 106.807 22.3184 105.822 23.0684C104.838 23.8066 104 24.1758 103.309 24.1758C102.348 24.1758 101.633 23.6719 101.164 22.6641C100.695 21.6562 100.461 20.5547 100.461 19.3594C100.461 18.9023 100.508 18.4688 100.602 18.0586C100.695 17.6367 100.807 17.291 100.936 17.0215C101.064 16.752 101.305 16.3301 101.656 15.7559C103.32 13.166 104.844 11.8711 106.227 11.8711C106.941 11.8711 107.299 12.1465 107.299 12.6973C107.299 13.0723 107.064 13.6582 106.596 14.4551C106.139 15.252 105.729 15.8203 105.365 16.1602C104.346 17.1445 103.678 17.8301 103.361 18.2168C103.057 18.6035 102.904 19.043 102.904 19.5352C102.904 19.957 103.062 20.3086 103.379 20.5898C103.695 20.8711 104.105 21.0117 104.609 21.0117C105.16 21.0117 105.764 20.8125 106.42 20.4141C107.088 20.0039 107.949 19.3535 109.004 18.4629ZM110.92 15.3164C112.701 13.6992 114.43 12.498 116.105 11.7129C117.781 10.9277 119.076 10.5352 119.99 10.5352C120.236 10.5352 120.465 10.6406 120.676 10.8516C120.887 11.0508 121.051 11.2852 121.168 11.5547C121.297 11.8242 121.361 12.0234 121.361 12.1523C121.361 12.3633 121.279 12.5215 121.115 12.627C120.951 12.7207 120.664 12.8379 120.254 12.9785C120.336 13.166 120.441 13.4062 120.57 13.6992C120.699 13.9922 120.799 14.2324 120.869 14.4199C120.939 14.5957 120.975 14.7539 120.975 14.8945C120.975 15.1758 120.688 15.7031 120.113 16.4766C119.551 17.2383 119.152 17.8008 118.918 18.1641C118.695 18.5273 118.584 18.9727 118.584 19.5C118.584 20.3672 118.982 20.8008 119.779 20.8008C120.6 20.8008 121.883 20.0332 123.629 18.498V19.5703C120.664 22.8633 118.543 24.5098 117.266 24.5098C116.809 24.5098 116.48 24.3574 116.281 24.0527C116.094 23.7598 116 23.3203 116 22.7344C116 21.8086 116.334 20.4668 117.002 18.709C115.291 20.6074 114.02 21.9609 113.188 22.7695C112.355 23.5664 111.67 23.9648 111.131 23.9648C110.873 23.9648 110.551 23.7422 110.164 23.2969C109.777 22.8516 109.432 22.2773 109.127 21.5742C108.834 20.8594 108.688 20.1211 108.688 19.3594C108.688 18.8086 108.74 18.3516 108.846 17.9883C108.951 17.6133 109.156 17.2324 109.461 16.8457C109.766 16.459 110.252 15.9492 110.92 15.3164ZM119.34 13.3828C116.293 14.7773 114.119 15.9609 112.818 16.9336C111.529 17.9062 110.885 18.9082 110.885 19.9395C110.885 20.3145 110.949 20.625 111.078 20.8711C111.207 21.1055 111.383 21.2227 111.605 21.2227C111.734 21.2227 111.963 21.1406 112.291 20.9766C113.521 20.25 114.646 19.3066 115.666 18.1465C116.686 16.9746 117.91 15.3867 119.34 13.3828ZM131.891 18.2695V19.5703C129.441 22.8164 127.449 24.4395 125.914 24.4395C125.082 24.4395 124.426 23.9883 123.945 23.0859C123.477 22.1719 123.242 20.9766 123.242 19.5C123.242 18.3047 123.523 16.8867 124.086 15.2461C124.648 13.5938 125.398 11.9238 126.336 10.2363C127.285 8.53711 128.264 7.06055 129.271 5.80664C130.291 4.54102 131.234 3.65625 132.102 3.15234C132.453 2.94141 132.729 2.83594 132.928 2.83594C133.174 2.83594 133.338 2.94727 133.42 3.16992C133.502 3.38086 133.543 3.75 133.543 4.27734C133.543 5.90625 132.881 7.91016 131.557 10.2891C130.232 12.6562 128.387 15.0762 126.02 17.5488C125.902 18.1582 125.844 18.627 125.844 18.9551C125.844 19.7051 126.002 20.3145 126.318 20.7832C126.646 21.252 127.098 21.4863 127.672 21.4863C127.965 21.4863 128.281 21.375 128.621 21.1523C128.961 20.918 129.318 20.6309 129.693 20.291C130.068 19.9512 130.801 19.2773 131.891 18.2695ZM126.635 15.1055C127.244 14.5078 127.83 13.8281 128.393 13.0664C128.967 12.3047 129.506 11.4902 130.01 10.623C130.514 9.75586 130.906 8.97656 131.188 8.28516C131.48 7.59375 131.627 7.07227 131.627 6.7207C131.627 6.45117 131.533 6.31641 131.346 6.31641C131.275 6.31641 131.141 6.38086 130.941 6.50977C130.227 7.0957 129.424 8.24414 128.533 9.95508C127.643 11.6543 127.01 13.3711 126.635 15.1055ZM148.941 13.5586L154.303 5.56055C153.084 5.60742 151.801 5.7832 150.453 6.08789C149.105 6.39258 147.951 6.7207 146.99 7.07227C146.029 7.41211 145.168 7.74023 144.406 8.05664C143.656 8.36133 143.117 8.57812 142.789 8.70703C142.707 8.70703 142.625 8.67773 142.543 8.61914C142.461 8.56055 142.42 8.49023 142.42 8.4082C142.42 8.31445 142.689 7.74023 143.229 6.68555C143.779 5.63086 144.424 4.5 145.162 3.29297C149.264 1.82813 152.885 1.0957 156.025 1.0957C159.658 1.0957 162.178 1.86914 163.584 3.41602C164.088 3.95508 164.475 4.62305 164.744 5.41992C165.025 6.20508 165.166 6.98438 165.166 7.75781C165.166 9.51562 164.797 11.1152 164.059 12.5566C163.332 13.9863 162.289 15.2285 160.93 16.2832C159.57 17.3379 157.971 18.1465 156.131 18.709C154.291 19.2598 152.275 19.5352 150.084 19.5352C149.697 19.5352 148.906 19.4648 147.711 19.3242L146.129 22.207C146.293 22.4531 146.375 22.6523 146.375 22.8047C146.375 23.168 146.293 23.4727 146.129 23.7188C145.895 24.0703 145.584 24.5332 145.197 25.1074C144.811 25.6816 144.547 26.0625 144.406 26.25C144.277 26.4375 144.125 26.6016 143.949 26.7422C143.785 26.8828 143.621 26.9531 143.457 26.9531C143.117 26.9531 142.9 26.8477 142.807 26.6367C142.713 26.4375 142.666 26.1562 142.666 25.793C142.666 25.2773 142.918 24.4629 143.422 23.3496C143.938 22.2246 144.711 20.7363 145.742 18.8848C145.191 18.6738 144.764 18.3984 144.459 18.0586C144.154 17.7188 144.002 17.3848 144.002 17.0566C144.002 16.3301 144.418 15.6562 145.25 15.0352C146.082 14.4141 147.312 13.9219 148.941 13.5586ZM150.77 14.0332L149.768 15.7207C150.213 15.7441 150.605 15.7676 150.945 15.791C151.297 15.8145 151.59 15.8262 151.824 15.8262C153.875 15.8262 155.65 15.5508 157.15 15C158.662 14.4492 159.857 13.7695 160.736 12.9609C161.627 12.1406 162.271 11.3203 162.67 10.5C163.068 9.67969 163.268 8.99414 163.268 8.44336C163.268 7.68164 162.963 7.08398 162.354 6.65039C161.744 6.2168 160.865 5.92383 159.717 5.77148C158.58 5.60742 157.109 5.52539 155.305 5.52539C155.328 5.6543 155.34 5.8125 155.34 6C155.34 6.60938 155.018 7.41211 154.373 8.4082L151.314 13.207L153.617 12.9434C153.805 12.9434 153.898 13.0312 153.898 13.207C153.898 13.3594 153.746 13.4648 153.441 13.5234L150.77 14.0332ZM165.518 15.3164C167.299 13.6992 169.027 12.498 170.703 11.7129C172.379 10.9277 173.674 10.5352 174.588 10.5352C174.834 10.5352 175.062 10.6406 175.273 10.8516C175.484 11.0508 175.648 11.2852 175.766 11.5547C175.895 11.8242 175.959 12.0234 175.959 12.1523C175.959 12.3633 175.877 12.5215 175.713 12.627C175.549 12.7207 175.262 12.8379 174.852 12.9785C174.934 13.166 175.039 13.4062 175.168 13.6992C175.297 13.9922 175.396 14.2324 175.467 14.4199C175.537 14.5957 175.572 14.7539 175.572 14.8945C175.572 15.1758 175.285 15.7031 174.711 16.4766C174.148 17.2383 173.75 17.8008 173.516 18.1641C173.293 18.5273 173.182 18.9727 173.182 19.5C173.182 20.3672 173.58 20.8008 174.377 20.8008C175.197 20.8008 176.48 20.0332 178.227 18.498V19.5703C175.262 22.8633 173.141 24.5098 171.863 24.5098C171.406 24.5098 171.078 24.3574 170.879 24.0527C170.691 23.7598 170.598 23.3203 170.598 22.7344C170.598 21.8086 170.932 20.4668 171.6 18.709C169.889 20.6074 168.617 21.9609 167.785 22.7695C166.953 23.5664 166.268 23.9648 165.729 23.9648C165.471 23.9648 165.148 23.7422 164.762 23.2969C164.375 22.8516 164.029 22.2773 163.725 21.5742C163.432 20.8594 163.285 20.1211 163.285 19.3594C163.285 18.8086 163.338 18.3516 163.443 17.9883C163.549 17.6133 163.754 17.2324 164.059 16.8457C164.363 16.459 164.85 15.9492 165.518 15.3164ZM173.938 13.3828C170.891 14.7773 168.717 15.9609 167.416 16.9336C166.127 17.9062 165.482 18.9082 165.482 19.9395C165.482 20.3145 165.547 20.625 165.676 20.8711C165.805 21.1055 165.98 21.2227 166.203 21.2227C166.332 21.2227 166.561 21.1406 166.889 20.9766C168.119 20.25 169.244 19.3066 170.264 18.1465C171.283 16.9746 172.508 15.3867 173.938 13.3828ZM185.293 10.6055C185 10.6055 184.719 10.4941 184.449 10.2715C184.191 10.0488 184.062 9.76758 184.062 9.42773C184.062 8.91211 184.309 8.33789 184.801 7.70508C185.293 7.07227 185.803 6.75586 186.33 6.75586C186.682 6.75586 186.975 6.86719 187.209 7.08984C187.443 7.30078 187.561 7.61133 187.561 8.02148C187.561 8.52539 187.32 9.08203 186.84 9.69141C186.359 10.3008 185.844 10.6055 185.293 10.6055ZM186.488 18.4629V19.7461C185.352 21.2109 184.291 22.3184 183.307 23.0684C182.322 23.8066 181.484 24.1758 180.793 24.1758C179.832 24.1758 179.117 23.6719 178.648 22.6641C178.18 21.6562 177.945 20.5547 177.945 19.3594C177.945 18.9023 177.992 18.4688 178.086 18.0586C178.18 17.6367 178.291 17.291 178.42 17.0215C178.549 16.752 178.789 16.3301 179.141 15.7559C180.805 13.166 182.328 11.8711 183.711 11.8711C184.426 11.8711 184.783 12.1465 184.783 12.6973C184.783 13.0723 184.549 13.6582 184.08 14.4551C183.623 15.252 183.213 15.8203 182.85 16.1602C181.83 17.1445 181.162 17.8301 180.846 18.2168C180.541 18.6035 180.389 19.043 180.389 19.5352C180.389 19.957 180.547 20.3086 180.863 20.5898C181.18 20.8711 181.59 21.0117 182.094 21.0117C182.645 21.0117 183.248 20.8125 183.904 20.4141C184.572 20.0039 185.434 19.3535 186.488 18.4629ZM198.195 15.2812C196.133 17.5781 195.102 19.1777 195.102 20.0801C195.102 20.584 195.307 20.8359 195.717 20.8359C196.057 20.8359 196.496 20.6602 197.035 20.3086C197.586 19.9453 198.441 19.3066 199.602 18.3926V19.6055C197.938 21.2461 196.66 22.4297 195.77 23.1562C194.879 23.8828 194.152 24.2461 193.59 24.2461C192.629 24.2461 192.148 23.6133 192.148 22.3477C192.148 21.9727 192.207 21.6035 192.324 21.2402C192.441 20.877 192.6 20.502 192.799 20.1152C193.01 19.7168 193.326 19.1543 193.748 18.4277C194.17 17.6895 194.656 16.8574 195.207 15.9316C194.539 16.2715 193.701 16.9453 192.693 17.9531C192.037 18.5859 191.48 19.1895 191.023 19.7637C190.566 20.3262 190.074 20.959 189.547 21.6621C189.031 22.3535 188.65 22.8223 188.404 23.0684C188.17 23.3027 187.93 23.4199 187.684 23.4199C187.309 23.4199 186.963 23.0273 186.646 22.2422C186.33 21.457 186.172 20.543 186.172 19.5C186.172 18.8555 186.242 18.3516 186.383 17.9883C186.535 17.625 186.828 17.1094 187.262 16.4414C188.07 15.1992 188.768 14.291 189.354 13.7168C189.939 13.1309 190.502 12.8379 191.041 12.8379C191.416 12.8379 191.715 12.9023 191.938 13.0312C192.172 13.1602 192.289 13.3594 192.289 13.6289C192.289 13.7461 192.254 13.8691 192.184 13.998C192.113 14.127 192.031 14.2441 191.938 14.3496C191.855 14.4551 191.674 14.6602 191.393 14.9648C189.541 17.0156 188.615 18.3457 188.615 18.9551C188.615 19.2949 188.727 19.4648 188.949 19.4648C189.09 19.4648 189.359 19.2422 189.758 18.7969C190.168 18.3398 190.689 17.748 191.322 17.0215C191.967 16.2832 192.723 15.5156 193.59 14.7188C194.469 13.9219 195.465 13.1543 196.578 12.416C197.199 11.9824 197.715 11.7656 198.125 11.7656C198.312 11.7656 198.494 12.0234 198.67 12.5391C198.857 13.0547 198.951 13.5762 198.951 14.1035C198.951 14.3613 198.699 14.7539 198.195 15.2812ZM205.666 9.33984H206.422C207.043 8.22656 207.605 7.44141 208.109 6.98438C208.613 6.51562 209.188 6.28125 209.832 6.28125C210.477 6.28125 210.799 6.42773 210.799 6.7207C210.799 6.86133 210.547 7.24219 210.043 7.86328C209.539 8.48438 209.158 9.00586 208.9 9.42773C209.299 9.47461 209.65 9.51562 209.955 9.55078C210.271 9.58594 210.518 9.61523 210.693 9.63867C210.025 10.8809 209.188 12.1523 208.18 13.4531C207.852 13.4297 207.576 13.4121 207.354 13.4004C207.131 13.377 206.902 13.3594 206.668 13.3477C206.445 13.3242 206.17 13.3008 205.842 13.2773C205.209 14.2969 204.676 15.2109 204.242 16.0195C203.82 16.8164 203.492 17.5488 203.258 18.2168C203.035 18.8848 202.924 19.5176 202.924 20.1152C202.924 20.9238 203.246 21.3281 203.891 21.3281C204.336 21.3281 204.916 21.0938 205.631 20.625C206.357 20.1445 207.324 19.4121 208.531 18.4277V19.6055C205.367 23.0391 203.029 24.7559 201.518 24.7559C200.99 24.7559 200.562 24.5508 200.234 24.1406C199.918 23.7305 199.76 23.2031 199.76 22.5586C199.76 22.125 199.848 21.6094 200.023 21.0117C200.211 20.4141 200.539 19.5117 201.008 18.3047C200.844 18.4453 200.686 18.5859 200.533 18.7266C200.393 18.8555 200.258 18.9785 200.129 19.0957C200.012 19.2012 199.883 19.3184 199.742 19.4473C199.602 19.5645 199.461 19.6875 199.32 19.8164V18.6035C200.551 17.5723 202.039 15.7617 203.785 13.1719C203.609 13.1602 203.445 13.1543 203.293 13.1543C203.141 13.1426 202.959 13.1367 202.748 13.1367C202.057 13.1367 201.541 13.1836 201.201 13.2773C201.061 13.3125 200.926 13.3535 200.797 13.4004C200.68 13.4355 200.598 13.4531 200.551 13.4531C200.504 13.4531 200.48 13.418 200.48 13.3477C200.48 12.9609 200.721 12.3809 201.201 11.6074C201.588 10.9512 201.951 10.4648 202.291 10.1484C202.643 9.83203 203.064 9.62109 203.557 9.51562C204.061 9.39844 204.764 9.33984 205.666 9.33984ZM215.703 10.6055C215.41 10.6055 215.129 10.4941 214.859 10.2715C214.602 10.0488 214.473 9.76758 214.473 9.42773C214.473 8.91211 214.719 8.33789 215.211 7.70508C215.703 7.07227 216.213 6.75586 216.74 6.75586C217.092 6.75586 217.385 6.86719 217.619 7.08984C217.854 7.30078 217.971 7.61133 217.971 8.02148C217.971 8.52539 217.73 9.08203 217.25 9.69141C216.77 10.3008 216.254 10.6055 215.703 10.6055ZM216.898 18.4629V19.7461C215.762 21.2109 214.701 22.3184 213.717 23.0684C212.732 23.8066 211.895 24.1758 211.203 24.1758C210.242 24.1758 209.527 23.6719 209.059 22.6641C208.59 21.6562 208.355 20.5547 208.355 19.3594C208.355 18.9023 208.402 18.4688 208.496 18.0586C208.59 17.6367 208.701 17.291 208.83 17.0215C208.959 16.752 209.199 16.3301 209.551 15.7559C211.215 13.166 212.738 11.8711 214.121 11.8711C214.836 11.8711 215.193 12.1465 215.193 12.6973C215.193 13.0723 214.959 13.6582 214.49 14.4551C214.033 15.252 213.623 15.8203 213.26 16.1602C212.24 17.1445 211.572 17.8301 211.256 18.2168C210.951 18.6035 210.799 19.043 210.799 19.5352C210.799 19.957 210.957 20.3086 211.273 20.5898C211.59 20.8711 212 21.0117 212.504 21.0117C213.055 21.0117 213.658 20.8125 214.314 20.4141C214.982 20.0039 215.844 19.3535 216.898 18.4629ZM228.605 15.2812C226.543 17.5781 225.512 19.1777 225.512 20.0801C225.512 20.584 225.717 20.8359 226.127 20.8359C226.467 20.8359 226.906 20.6602 227.445 20.3086C227.996 19.9453 228.852 19.3066 230.012 18.3926V19.6055C228.348 21.2461 227.07 22.4297 226.18 23.1562C225.289 23.8828 224.562 24.2461 224 24.2461C223.039 24.2461 222.559 23.6133 222.559 22.3477C222.559 21.9727 222.617 21.6035 222.734 21.2402C222.852 20.877 223.01 20.502 223.209 20.1152C223.42 19.7168 223.736 19.1543 224.158 18.4277C224.58 17.6895 225.066 16.8574 225.617 15.9316C224.949 16.2715 224.111 16.9453 223.104 17.9531C222.447 18.5859 221.891 19.1895 221.434 19.7637C220.977 20.3262 220.484 20.959 219.957 21.6621C219.441 22.3535 219.061 22.8223 218.814 23.0684C218.58 23.3027 218.34 23.4199 218.094 23.4199C217.719 23.4199 217.373 23.0273 217.057 22.2422C216.74 21.457 216.582 20.543 216.582 19.5C216.582 18.8555 216.652 18.3516 216.793 17.9883C216.945 17.625 217.238 17.1094 217.672 16.4414C218.48 15.1992 219.178 14.291 219.764 13.7168C220.35 13.1309 220.912 12.8379 221.451 12.8379C221.826 12.8379 222.125 12.9023 222.348 13.0312C222.582 13.1602 222.699 13.3594 222.699 13.6289C222.699 13.7461 222.664 13.8691 222.594 13.998C222.523 14.127 222.441 14.2441 222.348 14.3496C222.266 14.4551 222.084 14.6602 221.803 14.9648C219.951 17.0156 219.025 18.3457 219.025 18.9551C219.025 19.2949 219.137 19.4648 219.359 19.4648C219.5 19.4648 219.77 19.2422 220.168 18.7969C220.578 18.3398 221.1 17.748 221.732 17.0215C222.377 16.2832 223.133 15.5156 224 14.7188C224.879 13.9219 225.875 13.1543 226.988 12.416C227.609 11.9824 228.125 11.7656 228.535 11.7656C228.723 11.7656 228.904 12.0234 229.08 12.5391C229.268 13.0547 229.361 13.5762 229.361 14.1035C229.361 14.3613 229.109 14.7539 228.605 15.2812ZM243.881 19.6406L238.045 24.4395C236.404 27.2754 234.91 29.3906 233.562 30.7852C232.215 32.1914 231.213 32.8945 230.557 32.8945C230.205 32.8945 230.029 32.6777 230.029 32.2441C230.029 31.4004 230.457 30.3223 231.312 29.0098C231.652 28.4941 232.039 27.9902 232.473 27.498C232.918 27.0059 233.334 26.5781 233.721 26.2148C234.119 25.8633 234.641 25.418 235.285 24.8789C235.93 24.3516 236.369 23.9883 236.604 23.7891C237.775 21.3984 238.619 19.5703 239.135 18.3047C238.033 19.4766 237.072 20.4375 236.252 21.1875C235.432 21.9375 234.676 22.5176 233.984 22.9277C233.305 23.3262 232.689 23.5254 232.139 23.5254C231.541 23.5254 230.99 23.0508 230.486 22.1016C229.982 21.1406 229.73 20.1562 229.73 19.1484C229.73 18.6797 229.836 18.1875 230.047 17.6719C230.27 17.1562 230.609 16.6055 231.066 16.0195C231.535 15.4336 232.127 14.8359 232.842 14.2266C233.557 13.6055 234.395 13.002 235.355 12.416C237.172 11.2793 238.584 10.7109 239.592 10.7109C240.342 10.7109 240.717 10.9863 240.717 11.5371C240.717 12.2988 239.902 13.043 238.273 13.7695C237.277 14.2031 236.287 14.7773 235.303 15.4922C234.33 16.207 233.539 16.9688 232.93 17.7773C232.332 18.5742 232.033 19.2949 232.033 19.9395C232.033 20.2559 232.109 20.5078 232.262 20.6953C232.414 20.8828 232.613 20.9766 232.859 20.9766C233.27 20.9766 233.738 20.7891 234.266 20.4141C234.793 20.0391 235.572 19.377 236.604 18.4277C237.072 17.9941 237.693 17.2969 238.467 16.3359C239.252 15.3633 239.896 14.625 240.4 14.1211C240.916 13.6055 241.379 13.3477 241.789 13.3477C242.023 13.3477 242.211 13.4238 242.352 13.5762C242.504 13.7168 242.58 13.9277 242.58 14.209C242.58 14.748 242.363 15.5332 241.93 16.5645C241.508 17.584 240.74 19.2598 239.627 21.5918L243.881 18.498V19.6406ZM245.797 24.4395C245.422 24.2988 245.176 24.1934 245.059 24.123C244.953 24.0527 244.9 23.9062 244.9 23.6836C244.9 23.3672 245.082 22.9512 245.445 22.4355C245.82 21.9082 246.242 21.4512 246.711 21.0645C247.18 20.666 247.561 20.4668 247.854 20.4668C248.287 20.4668 248.504 20.7305 248.504 21.2578C248.504 21.8555 248.146 22.6523 247.432 23.6484C246.729 24.6328 246.09 25.3125 245.516 25.6875C245.129 25.9453 244.936 25.9805 244.936 25.793C244.936 25.7109 244.965 25.6289 245.023 25.5469C245.094 25.4766 245.211 25.3242 245.375 25.0898C245.551 24.8672 245.691 24.6504 245.797 24.4395ZM283.572 10.6758L284.117 11.2207C283.156 12.4277 282.312 13.3066 281.586 13.8574C280.871 14.4082 280.344 14.6836 280.004 14.6836C279.723 14.6836 279.582 14.4316 279.582 13.9277C279.582 12.6738 280.408 10.7402 282.061 8.12695C283.455 5.86523 284.152 4.60547 284.152 4.34766C284.152 4.125 284.059 4.01367 283.871 4.01367C283.543 4.01367 282.717 4.75195 281.393 6.22852C280.068 7.70508 278.434 9.79102 276.488 12.4863C274.285 15.4863 272.773 17.6309 271.953 18.9199C273.512 19.0723 274.789 19.2715 275.785 19.5176C276.793 19.752 278.246 20.1387 280.145 20.6777C282.055 21.2168 283.461 21.5332 284.363 21.627C283.262 22.8809 282.5 23.7305 282.078 24.1758C281.668 24.6328 281.352 24.9082 281.129 25.002C280.777 25.1543 280.256 25.1602 279.564 25.0195C278.873 24.8906 277.777 24.6328 276.277 24.2461C274.777 23.8594 273.371 23.5371 272.059 23.2793C270.758 23.0215 269.568 22.8926 268.49 22.8926C267.881 22.8926 267.354 22.9629 266.908 23.1035C266.475 23.2441 265.865 23.4785 265.08 23.8066C264.307 24.123 263.762 24.2812 263.445 24.2812C262.988 24.2812 262.76 24.0938 262.76 23.7188C262.76 23.5078 262.836 23.2676 262.988 22.998C263.375 22.377 263.75 21.7852 264.113 21.2227C264.477 20.6602 264.863 20.2207 265.273 19.9043C265.684 19.5879 266.275 19.3418 267.049 19.166C267.822 18.9902 268.842 18.8965 270.107 18.8848C272.018 15.9551 273.799 13.3594 275.451 11.0977C277.104 8.82422 278.604 6.9082 279.951 5.34961C281.311 3.79102 282.5 2.61328 283.52 1.81641C284.539 1.00781 285.348 0.603516 285.945 0.603516C286.367 0.603516 286.695 0.720703 286.93 0.955078C287.164 1.18945 287.281 1.51758 287.281 1.93945C287.281 3.3457 286.045 6.25781 283.572 10.6758ZM304.982 10.6758L305.527 11.2207C304.566 12.4277 303.723 13.3066 302.996 13.8574C302.281 14.4082 301.754 14.6836 301.414 14.6836C301.133 14.6836 300.992 14.4316 300.992 13.9277C300.992 12.6738 301.818 10.7402 303.471 8.12695C304.865 5.86523 305.562 4.60547 305.562 4.34766C305.562 4.125 305.469 4.01367 305.281 4.01367C304.953 4.01367 304.127 4.75195 302.803 6.22852C301.479 7.70508 299.844 9.79102 297.898 12.4863C295.695 15.4863 294.184 17.6309 293.363 18.9199C294.922 19.0723 296.199 19.2715 297.195 19.5176C298.203 19.752 299.656 20.1387 301.555 20.6777C303.465 21.2168 304.871 21.5332 305.773 21.627C304.672 22.8809 303.91 23.7305 303.488 24.1758C303.078 24.6328 302.762 24.9082 302.539 25.002C302.188 25.1543 301.666 25.1602 300.975 25.0195C300.283 24.8906 299.188 24.6328 297.688 24.2461C296.188 23.8594 294.781 23.5371 293.469 23.2793C292.168 23.0215 290.979 22.8926 289.9 22.8926C289.291 22.8926 288.764 22.9629 288.318 23.1035C287.885 23.2441 287.275 23.4785 286.49 23.8066C285.717 24.123 285.172 24.2812 284.855 24.2812C284.398 24.2812 284.17 24.0938 284.17 23.7188C284.17 23.5078 284.246 23.2676 284.398 22.998C284.785 22.377 285.16 21.7852 285.523 21.2227C285.887 20.6602 286.273 20.2207 286.684 19.9043C287.094 19.5879 287.686 19.3418 288.459 19.166C289.232 18.9902 290.252 18.8965 291.518 18.8848C293.428 15.9551 295.209 13.3594 296.861 11.0977C298.514 8.82422 300.014 6.9082 301.361 5.34961C302.721 3.79102 303.91 2.61328 304.93 1.81641C305.949 1.00781 306.758 0.603516 307.355 0.603516C307.777 0.603516 308.105 0.720703 308.34 0.955078C308.574 1.18945 308.691 1.51758 308.691 1.93945C308.691 3.3457 307.455 6.25781 304.982 10.6758ZM329.68 18.3926V19.5352C327.711 21.7266 325.9 23.5312 324.248 24.9492C322.607 26.3789 321.002 27.4746 319.432 28.2363C317.861 29.0098 316.344 29.3965 314.879 29.3965C313.613 29.3965 312.523 29.1445 311.609 28.6406C310.707 28.1367 310.021 27.3984 309.553 26.4258C309.096 25.4648 308.867 24.3223 308.867 22.998C308.867 21.9551 309.031 20.8535 309.359 19.6934C309.699 18.5215 310.186 17.3438 310.818 16.1602C311.451 14.9648 312.225 13.7344 313.139 12.4688C314.064 11.2031 315.148 9.87305 316.391 8.47852C317.68 7.03711 318.951 5.79492 320.205 4.75195C321.459 3.69727 322.596 2.87109 323.615 2.27344C324.635 1.67578 325.578 1.23047 326.445 0.9375C327.324 0.644531 328.051 0.498047 328.625 0.498047C329.211 0.498047 329.709 0.638672 330.119 0.919922C330.529 1.20117 330.846 1.61133 331.068 2.15039C331.291 2.68945 331.402 3.31055 331.402 4.01367C331.402 5.33789 330.951 6.81445 330.049 8.44336C329.146 10.0605 328.021 11.625 326.674 13.1367C325.326 14.6484 324.037 15.8848 322.807 16.8457C321.588 17.7949 320.709 18.2695 320.17 18.2695C319.807 18.2695 319.467 18.1289 319.15 17.8477C318.846 17.5547 318.693 17.2266 318.693 16.8633C318.693 16.1953 319.045 15.3867 319.748 14.4375C320.463 13.4883 321.236 12.6211 322.068 11.8359C322.912 11.0391 323.416 10.6406 323.58 10.6406C323.662 10.6406 323.703 10.6758 323.703 10.7461C323.703 10.8516 323.639 11.0332 323.51 11.291C323.393 11.5488 323.334 11.707 323.334 11.7656C323.334 11.8594 323.369 11.9062 323.439 11.9062C323.639 11.9062 324.213 11.373 325.162 10.3066C326.111 9.24023 326.979 8.06836 327.764 6.79102C328.561 5.50195 328.959 4.44727 328.959 3.62695C328.959 3.28711 328.883 3.0293 328.73 2.85352C328.59 2.66602 328.373 2.57227 328.08 2.57227C327.26 2.57227 326.012 3.24023 324.336 4.57617C322.672 5.90039 320.961 7.59375 319.203 9.65625C317.457 11.707 315.998 13.8281 314.826 16.0195C313.654 18.2109 313.068 20.1387 313.068 21.8027C313.068 22.7637 313.209 23.5664 313.49 24.2109C313.783 24.8555 314.205 25.3535 314.756 25.7051C315.318 26.0566 315.992 26.2324 316.777 26.2324C318.477 26.2324 320.404 25.5703 322.561 24.2461C324.717 22.9219 327.09 20.9707 329.68 18.3926Z" fill="#1D9EE7"/>
</svg>
