<svg width="84" height="93" viewBox="0 0 84 93" fill="none" xmlns="http://www.w3.org/2000/svg">
<path d="M72.0114 38.5947C75.4782 38.0616 78.616 36.2392 80.7968 33.4919C82.9776 30.7447 84.0406 27.2753 83.7731 23.7779C83.5056 20.2805 81.9274 17.0131 79.3542 14.6294C76.781 12.2457 73.4027 10.9215 69.8951 10.9219H65.25V4.73438C65.2486 3.50404 64.7592 2.32452 63.8892 1.45454C63.0192 0.584565 61.8397 0.0951829 60.6094 0.09375H4.92188C3.69154 0.0951829 2.51202 0.584565 1.64204 1.45454C0.772064 2.32452 0.282683 3.50404 0.28125 4.73438V24.8438C0.282683 26.0741 0.772064 27.2536 1.64204 28.1236C2.51202 28.9936 3.69154 29.4829 4.92188 29.4844H60.6094C61.8397 29.4829 63.0192 28.9936 63.8892 28.1236C64.7592 27.2536 65.2486 26.0741 65.25 24.8438V17.1094H69.8951C71.8431 17.1094 73.7193 17.845 75.1483 19.1689C76.5774 20.4928 77.4538 22.3075 77.6024 24.2499C77.7509 26.1922 77.1606 28.1191 75.9495 29.6449C74.7384 31.1708 72.9959 32.1831 71.0705 32.4793L37.4062 37.6583V51.1406H26.5781V92.9062H54.4219V51.1406H43.5938V42.9667L72.0114 38.5947ZM59.0625 23.2969H6.46875V6.28125H59.0625V23.2969ZM48.2344 57.3281V86.7188H32.7656V57.3281H48.2344Z" fill="white"/>
</svg>
