<svg width="99" height="99" viewBox="0 0 99 99" fill="none" xmlns="http://www.w3.org/2000/svg">
<path d="M0 49.5C0 70.6324 13.2454 88.6751 31.8863 95.7743C31.4325 91.9091 30.9499 85.536 31.9894 81.0645C32.8845 77.22 37.7685 56.5702 37.7685 56.5702C37.7685 56.5702 36.2959 53.6209 36.2959 49.2525C36.2959 42.405 40.2641 37.29 45.21 37.29C49.4175 37.29 51.447 40.4456 51.447 44.2283C51.447 48.4564 48.7534 54.7759 47.3633 60.6375C46.2041 65.5421 49.8259 69.5434 54.6604 69.5434C63.4178 69.5434 70.1539 60.3075 70.1539 46.9755C70.1539 35.1739 61.6729 26.928 49.566 26.928C35.5492 26.928 27.3199 37.4426 27.3199 48.312C27.3199 52.5484 28.9493 57.0859 30.987 59.5567C31.1607 59.7434 31.2835 59.9716 31.3434 60.2194C31.4034 60.4672 31.3986 60.7262 31.3294 60.9716C30.954 62.5309 30.1208 65.8762 29.9599 66.561C29.7413 67.4602 29.2462 67.6541 28.3099 67.2169C22.1554 64.3541 18.3109 55.3575 18.3109 48.1305C18.3109 32.5834 29.601 18.3109 50.8654 18.3109C67.9594 18.3109 81.246 30.492 81.246 46.7693C81.246 63.7519 70.5416 77.4221 55.6751 77.4221C50.6797 77.4221 45.9896 74.8234 44.3809 71.7585C44.3809 71.7585 41.91 81.1718 41.3119 83.4735C40.1486 87.945 36.9229 93.6045 34.9222 96.8179C39.534 98.2369 44.4262 99 49.5 99C76.8364 99 99 76.8364 99 49.5C99 22.1636 76.8364 0 49.5 0C22.1636 0 0 22.1636 0 49.5Z" fill="#E60023"/>
</svg>
