<svg width="103" height="103" viewBox="0 0 103 103" fill="none" xmlns="http://www.w3.org/2000/svg">
<path d="M51.5 6.4375C26.615 6.4375 6.4375 26.615 6.4375 51.5C6.4375 76.385 26.615 96.5625 51.5 96.5625C76.385 96.5625 96.5625 76.385 96.5625 51.5C96.5625 26.615 76.385 6.4375 51.5 6.4375ZM73.1562 40.4054C73.1863 40.8781 73.1863 41.371 73.1863 41.8538C73.1863 56.6198 61.9408 73.6289 41.3911 73.6289C35.0542 73.6289 29.18 71.7882 24.2312 68.6197C25.1364 68.7203 26.0015 68.7605 26.9269 68.7605C32.1573 68.7605 36.9653 66.9902 40.7977 63.9928C35.8891 63.8922 31.765 60.6734 30.3568 56.2477C32.0769 56.4991 33.6259 56.4991 35.3962 56.0465C32.8687 55.533 30.597 54.1603 28.9669 52.1617C27.3368 50.163 26.4489 47.6617 26.4541 45.0826V44.9418C27.9327 45.7767 29.6729 46.2896 31.4935 46.3601C29.963 45.3401 28.7078 43.9582 27.8393 42.3369C26.9708 40.7157 26.5157 38.9052 26.5145 37.0659C26.5145 34.9838 27.0576 33.0827 28.0333 31.4331C30.8387 34.8866 34.3393 37.7111 38.3078 39.7231C42.2763 41.735 46.6237 42.8894 51.0675 43.1111C49.4883 35.5169 55.1613 29.3711 61.9811 29.3711C65.1998 29.3711 68.0967 30.7189 70.1386 32.8916C72.6633 32.4188 75.0773 31.4733 77.2299 30.206C76.395 32.791 74.6448 34.9737 72.3213 36.3518C74.5744 36.1104 76.7471 35.4867 78.7588 34.6116C77.2399 36.8446 75.3389 38.8262 73.1562 40.4054V40.4054Z" fill="#1DA1F2"/>
</svg>
