<svg width="100" height="67" viewBox="0 0 100 67" fill="none" xmlns="http://www.w3.org/2000/svg">
<path d="M96.94 10.3618C96.3795 8.36216 95.2875 6.55176 93.7803 5.12308C92.2305 3.65047 90.331 2.59708 88.261 2.06233C80.5143 0.020455 49.4778 0.0204554 49.4778 0.0204554C36.539 -0.126755 23.6034 0.520713 10.744 1.9592C8.67408 2.53346 6.77812 3.61039 5.2248 5.09421C3.69855 6.56271 2.59305 8.37358 2.01555 10.3577C0.628279 17.8311 -0.0457495 25.4195 0.00254588 33.0205C-0.0469541 40.6146 0.625421 48.2005 2.01555 55.6832C2.58067 57.6591 3.68205 59.4617 5.21242 60.9178C6.7428 62.374 8.64855 63.4258 10.744 63.9827C18.5939 66.0205 49.4778 66.0205 49.4778 66.0205C62.433 66.1679 75.3851 65.5204 88.261 64.0817C90.331 63.547 92.2305 62.4936 93.7803 61.021C95.3065 59.5648 96.3914 57.754 96.9359 55.7822C98.3594 48.3116 99.0516 40.7201 99.0025 33.1153C99.1096 25.4783 98.4184 17.851 96.94 10.3577V10.3618ZM39.6108 47.1445V18.9006L65.4333 33.0246L39.6108 47.1445Z" fill="#FF0000"/>
</svg>
